<?xml version="1.0" encoding="iso-8859-1"?>
<!-- Generator: Adobe Illustrator 19.0.0, SVG Export Plug-In . SVG Version: 6.00 Build 0)  -->
<svg version="1.1" id="Layer_1" xmlns="http://www.w3.org/2000/svg" xmlns:xlink="http://www.w3.org/1999/xlink" x="0px" y="0px"
	 viewBox="0 0 460 460" style="enable-background:new 0 0 460 460;" xml:space="preserve">
<g id="XMLID_1542_">
	<path id="XMLID_225_" style="fill:#D7D5C8;" d="M460,225v80c0,22.091-17.909,40-40,40h-40.283c0.182,1.643,0.283,3.309,0.283,5
		c0,24.853-20.147,45-45,45s-45-20.147-45-45c0-1.691,0.101-3.357,0.283-5H149.717c0.182,1.643,0.283,3.309,0.283,5
		c0,24.853-20.147,45-45,45s-45-20.147-45-45c0-1.691,0.101-3.357,0.283-5H40c-22.091,0-40-17.909-40-40V105
		c0-22.091,17.909-40,40-40h260C388.366,65,460,136.634,460,225z"/>
	<path id="XMLID_903_" style="fill:#BEBCB2;" d="M460,225v80c0,22.091-17.909,40-40,40h-70V165H0v-60c0-22.091,17.909-40,40-40h260
		C388.366,65,460,136.634,460,225z"/>
	<path id="XMLID_1509_" style="fill:#4C4C4B;" d="M105,305c-24.853,0-45,20.147-45,45s20.147,45,45,45s45-20.147,45-45
		S129.853,305,105,305z M105,365c-8.284,0-15-6.716-15-15s6.716-15,15-15s15,6.716,15,15S113.284,365,105,365z M335,305
		c-24.853,0-45,20.147-45,45s20.147,45,45,45s45-20.147,45-45S359.853,305,335,305z M335,365c-8.284,0-15-6.716-15-15
		s6.716-15,15-15s15,6.716,15,15S343.284,365,335,365z"/>
	<path id="XMLID_1145_" style="fill:#BC3C28;" d="M420,270L420,270c0-2.761,2.239-5,5-5h35v40h-5C435.67,305,420,289.33,420,270z"/>
	<path id="XMLID_1144_" style="fill:#D4632E;" d="M460,265v30.667c-16.569,0-30-13.431-30-30c0-0.224,0.012-0.444,0.017-0.667H460z"
		/>
	<path id="XMLID_1140_" style="fill:#5C676B;" d="M420,225L420,225c0,11.046-8.954,20-20,20h-40c-5.523,0-10-4.477-10-10v-10
		c0-11.046-8.954-20-20-20H50c-5.523,0-10-4.477-10-10v-80c0-5.523,4.477-10,10-10h250C366.274,105,420,158.726,420,225z"/>
	<path id="XMLID_910_" style="fill:#768184;" d="M140,205H80l30-100h60L140,205z M260,205h-60l30-100h60L260,205z"/>
</g>
<g>
</g>
<g>
</g>
<g>
</g>
<g>
</g>
<g>
</g>
<g>
</g>
<g>
</g>
<g>
</g>
<g>
</g>
<g>
</g>
<g>
</g>
<g>
</g>
<g>
</g>
<g>
</g>
<g>
</g>
</svg>
